<?xml version="1.0" encoding="iso-8859-1"?>
<!-- Generator: Adobe Illustrator 19.0.0, SVG Export Plug-In . SVG Version: 6.00 Build 0)  -->
<svg version="1.1" id="Capa_1" xmlns="http://www.w3.org/2000/svg" xmlns:xlink="http://www.w3.org/1999/xlink" x="0px" y="0px"
	 viewBox="0 0 317.6 317.6" style="enable-background:new 0 0 317.6 317.6;" xml:space="preserve">
<path style="fill:#263645;" d="M255.2,85.6h36.4c14.4,0,26,11.6,26,26v142c0,14-11.6,26-26,26H26c-14.4,0-26-11.6-26-26v-142
	c0-14.4,11.6-26,26-26h35.6H255.2z"/>
<path style="fill:#DB4F38;" d="M255.2,200.8c0,14.8-12.4,27.2-27.2,27.2H88.8c-14.8,0-27.2-12.4-27.2-27.2V36.4
	C61.6,21.6,74,9.2,88.8,9.2H228c14.8,0,27.2,12.4,27.2,27.2L255.2,200.8L255.2,200.8z"/>
<path style="fill:#E2564B;" d="M82.4,200.8V36.4c0-14.8,12.4-27.2,27.2-27.2H88.8C74,9.2,61.6,21.6,61.6,36.4v164.4
	c0,14.8,12.4,27.2,27.2,27.2h20.8C94.8,228,82.4,216,82.4,200.8z"/>
<g>
	<path style="fill:#BEC3C7;" d="M76,308.4H46.8c-3.6,0-6.4-2.8-6.4-6.4v-22.8H82V302C82.4,305.6,79.6,308.4,76,308.4z"/>
	<path style="fill:#BEC3C7;" d="M269.6,308.4h-29.2c-3.6,0-6.4-2.8-6.4-6.4v-22.8h41.6V302C276,305.6,273.2,308.4,269.6,308.4z"/>
</g>
<path style="fill:#2D3F4C;" d="M14.4,253.6v-142c0-14.4,11.6-26,26-26H26c-14.4,0-26,11.6-26,26v142c0,14,11.6,26,26,26h14.4
	C26,279.6,14.4,267.6,14.4,253.6z"/>
<g>
	<path style="fill:#D0D5D8;" d="M51.2,302v-22.8H40.8V302c0,3.6,2.8,6.4,6.4,6.4h10.4C54,308.4,51.2,305.6,51.2,302z"/>
	<path style="fill:#D0D5D8;" d="M244.8,302v-22.8h-10.4V302c0,3.6,2.8,6.4,6.4,6.4h10.4C247.6,308.4,244.8,305.6,244.8,302z"/>
</g>
<g>
</g>
<g>
</g>
<g>
</g>
<g>
</g>
<g>
</g>
<g>
</g>
<g>
</g>
<g>
</g>
<g>
</g>
<g>
</g>
<g>
</g>
<g>
</g>
<g>
</g>
<g>
</g>
<g>
</g>
</svg>
