<?xml version="1.0" encoding="UTF-8" standalone="no"?>
<!DOCTYPE svg PUBLIC "-//W3C//DTD SVG 1.1//EN" "http://www.w3.org/Graphics/SVG/1.1/DTD/svg11.dtd">
<svg version="1.1" xmlns="http://www.w3.org/2000/svg" xmlns:xlink="http://www.w3.org/1999/xlink" preserveAspectRatio="xMidYMid meet" viewBox="0 0 640 640" width="640" height="640"><defs><path d="M587.61 172.49C616.62 172.49 640 195.87 640 224.89C640 253.5 640 482.42 640 511.03C640 539.24 616.62 563.43 587.61 563.43C534.09 563.43 105.91 563.43 52.39 563.43C23.38 563.43 0 540.05 0 511.03C0 482.42 0 253.5 0 224.89C0 195.87 23.38 172.49 52.39 172.49C57.18 172.49 81.09 172.49 124.13 172.49L514.26 172.49C558.27 172.49 582.72 172.49 587.61 172.49Z" id="d59BQn1l06"></path><path d="M459.45 459.45C431.4 459.45 206.99 459.45 178.94 459.45C149.12 459.45 124.13 434.46 124.13 404.63C124.13 371.51 124.13 106.48 124.13 73.35C124.13 43.53 149.12 18.54 178.94 18.54C206.99 18.54 431.4 18.54 459.45 18.54C489.27 18.54 514.26 43.53 514.26 73.35C514.26 95.44 514.26 205.86 514.26 404.63L514.26 404.63C497.6 441.18 479.33 459.45 459.45 459.45Z" id="c9Yykzqo0"></path><path d="M166.05 73.35C166.05 43.53 191.03 18.54 220.86 18.54C216.66 18.54 183.13 18.54 178.94 18.54C149.12 18.54 124.13 43.53 124.13 73.35C124.13 106.48 124.13 371.51 124.13 404.63C124.13 434.46 149.12 459.45 178.94 459.45C183.13 459.45 216.66 459.45 220.86 459.45C191.03 459.45 166.05 435.26 166.05 404.63C166.05 338.38 166.05 106.48 166.05 73.35Z" id="eSY2ArO4W"></path><path d="M94.31 621.46C87.05 621.46 81.41 615.82 81.41 608.56C81.41 605.5 81.41 590.19 81.41 562.62L165.24 562.62C165.24 590.19 165.24 605.5 165.24 608.56C166.05 615.82 160.4 621.46 153.15 621.46C141.38 621.46 100.19 621.46 94.31 621.46Z" id="cK5ZMdwx6"></path><path d="M484.43 621.46C477.18 621.46 471.54 615.82 471.54 608.56C471.54 605.5 471.54 590.19 471.54 562.62L555.37 562.62C555.37 590.19 555.37 605.5 555.37 608.56C556.17 615.82 550.53 621.46 543.27 621.46C531.51 621.46 490.32 621.46 484.43 621.46Z" id="bkoQZxA2l"></path><path d="M29.02 224.89C29.02 195.87 52.39 172.49 81.41 172.49C78.51 172.49 55.29 172.49 52.39 172.49C23.38 172.49 0 195.87 0 224.89C0 253.5 0 482.42 0 511.03C0 539.24 23.38 563.43 52.39 563.43C55.29 563.43 78.51 563.43 81.41 563.43C52.39 563.43 29.02 539.24 29.02 511.03C29.02 453.8 29.02 253.5 29.02 224.89Z" id="c592gus02a"></path><path d="M103.17 562.62L82.22 562.62C82.22 590.19 82.22 605.5 82.22 608.56C82.22 615.82 87.86 621.46 95.11 621.46C97.21 621.46 113.97 621.46 116.07 621.46C108.82 621.46 103.17 615.82 103.17 608.56C103.17 602.44 103.17 587.12 103.17 562.62Z" id="b6Jq1dHzY"></path><path d="M493.3 562.62L472.34 562.62C472.34 590.19 472.34 605.5 472.34 608.56C472.34 615.82 477.98 621.46 485.24 621.46C487.34 621.46 504.1 621.46 506.2 621.46C498.94 621.46 493.3 615.82 493.3 608.56C493.3 602.44 493.3 587.12 493.3 562.62Z" id="gQMOa2uZq"></path></defs><g><g><g><use xlink:href="#d59BQn1l06" opacity="1" fill="#263645" fill-opacity="1"></use><g><use xlink:href="#d59BQn1l06" opacity="1" fill-opacity="0" stroke="#000000" stroke-width="1" stroke-opacity="0"></use></g></g><g><use xlink:href="#c9Yykzqo0" opacity="1" fill="#a1a19d" fill-opacity="1"></use><g><use xlink:href="#c9Yykzqo0" opacity="1" fill-opacity="0" stroke="#000000" stroke-width="1" stroke-opacity="0"></use></g></g><g><use xlink:href="#eSY2ArO4W" opacity="1" fill="#848480" fill-opacity="1"></use><g><use xlink:href="#eSY2ArO4W" opacity="1" fill-opacity="0" stroke="#000000" stroke-width="1" stroke-opacity="0"></use></g></g><g><use xlink:href="#cK5ZMdwx6" opacity="1" fill="#bec3c7" fill-opacity="1"></use><g><use xlink:href="#cK5ZMdwx6" opacity="1" fill-opacity="0" stroke="#000000" stroke-width="1" stroke-opacity="0"></use></g></g><g><use xlink:href="#bkoQZxA2l" opacity="1" fill="#bec3c7" fill-opacity="1"></use><g><use xlink:href="#bkoQZxA2l" opacity="1" fill-opacity="0" stroke="#000000" stroke-width="1" stroke-opacity="0"></use></g></g><g><use xlink:href="#c592gus02a" opacity="1" fill="#2d3f4c" fill-opacity="1"></use><g><use xlink:href="#c592gus02a" opacity="1" fill-opacity="0" stroke="#000000" stroke-width="1" stroke-opacity="0"></use></g></g><g><use xlink:href="#b6Jq1dHzY" opacity="1" fill="#d0d5d8" fill-opacity="1"></use><g><use xlink:href="#b6Jq1dHzY" opacity="1" fill-opacity="0" stroke="#000000" stroke-width="1" stroke-opacity="0"></use></g></g><g><use xlink:href="#gQMOa2uZq" opacity="1" fill="#d0d5d8" fill-opacity="1"></use><g><use xlink:href="#gQMOa2uZq" opacity="1" fill-opacity="0" stroke="#000000" stroke-width="1" stroke-opacity="0"></use></g></g></g></g></svg>